<?xml version="1.0" encoding="utf-8"?>
<!-- Generator: Adobe Illustrator 22.0.1, SVG Export Plug-In . SVG Version: 6.00 Build 0)  -->
<svg version="1.1" id="Layer_1" xmlns="http://www.w3.org/2000/svg" xmlns:xlink="http://www.w3.org/1999/xlink" x="0px" y="0px"
	 viewBox="0 0 163.9 203.9" style="enable-background:new 0 0 163.9 203.9;" xml:space="preserve">
<style type="text/css">
	.st0{fill:#3399FF;}
</style>
<g id="fish_1_">
	<path class="st0" d="M81.6,0C70.1,0,49.9,14.5,40.5,35.4c0,0-35,29.7-39.2,45C-3.5,97.5,7,155,7,155l35.2-27.5l0,0
		c6.7,12.3,15,23.5,22.3,32.2c-6.2,1.3-11.5,4.6-16.6,9.7c-12.3,12.3-11.6,33.8-11.6,33.8s22.2,1.5,34.5-10.8
		c4.8-4.8,10.8-14.4,10.8-14.4s6,10.2,10.8,15c12.3,12.3,34.5,10.1,34.5,10.1s2.2-21.5-10.1-33.8c-5.1-5.1-11.8-8.4-18-9.7
		c15-17.9,34.5-46.3,34.5-73.5c0,0,23,5.7,28.7,17.2c0,0,13.1-26.2-35.9-59.9l0.1,0.3C117.1,18.4,93.1,0,81.6,0z M87,31.6
		C87,37.3,82.3,42,76.6,42c-5.8,0-10.4-4.7-10.4-10.4s4.7-10.4,10.4-10.4C82.3,21.1,87,25.8,87,31.6z"/>
</g>
</svg>
