<?xml version="1.0" encoding="utf-8"?>
<!-- Generator: Adobe Illustrator 22.0.1, SVG Export Plug-In . SVG Version: 6.00 Build 0)  -->
<svg version="1.1" id="Layer_1" xmlns="http://www.w3.org/2000/svg" xmlns:xlink="http://www.w3.org/1999/xlink" x="0px" y="0px"
	 viewBox="0 0 231 230.9" style="enable-background:new 0 0 231 230.9;" xml:space="preserve">
<style type="text/css">
	.st0{fill:url(#SVGID_1_);}
	.st1{fill:none;stroke:url(#SVGID_2_);stroke-miterlimit:10;}
	.st2{fill:url(#SVGID_3_);}
	.st3{fill:url(#SVGID_4_);}
	.st4{fill:url(#SVGID_5_);}
</style>
<g>
	
		<linearGradient id="SVGID_1_" gradientUnits="userSpaceOnUse" x1="-226.9393" y1="107.1998" x2="-217.3881" y2="97.6486" gradientTransform="matrix(0.7071 0.7071 -0.7071 0.7071 438.0144 135.6803)">
		<stop  offset="0" style="stop-color:#B4DCC0"/>
		<stop  offset="0.2171" style="stop-color:#BBD7BB"/>
		<stop  offset="0.5341" style="stop-color:#CFC8AF"/>
		<stop  offset="0.9107" style="stop-color:#EEB09A"/>
		<stop  offset="1" style="stop-color:#F7A994"/>
	</linearGradient>
	<circle class="st0" cx="208.6" cy="51" r="12.8"/>
	
		<linearGradient id="SVGID_2_" gradientUnits="userSpaceOnUse" x1="-161.4863" y1="132.8714" x2="-323.2373" y2="294.6223" gradientTransform="matrix(0.7071 0.7071 -0.7071 0.7071 438.0144 135.6803)">
		<stop  offset="0" style="stop-color:#B4DCC0"/>
		<stop  offset="0.2171" style="stop-color:#BBD7BB"/>
		<stop  offset="0.5341" style="stop-color:#CFC8AF"/>
		<stop  offset="0.9107" style="stop-color:#EEB09A"/>
		<stop  offset="1" style="stop-color:#F7A994"/>
	</linearGradient>
	<path class="st1" d="M220.7,71.7c17.1,41.3,8.9,90.7-24.6,124.3c-44.4,44.4-116.7,44.4-161.1,0c-44.4-44.4-44.4-116.7,0-161.1
		c44.4-44.4,116.7-44.4,161.1,0"/>
	<g>
		<linearGradient id="SVGID_3_" gradientUnits="userSpaceOnUse" x1="98.3758" y1="117.3302" x2="132.6242" y2="117.3302">
			<stop  offset="0" style="stop-color:#B4DCC0"/>
			<stop  offset="0.2171" style="stop-color:#BBD7BB"/>
			<stop  offset="0.5341" style="stop-color:#CFC8AF"/>
			<stop  offset="0.9107" style="stop-color:#EEB09A"/>
			<stop  offset="1" style="stop-color:#F7A994"/>
		</linearGradient>
		<path class="st2" d="M126.8,109h-22.5c-3.2,0-5.9,2.6-5.9,5.9v4.9c0,3.2,2.6,5.9,5.9,5.9h22.5c3.2,0,5.9-2.6,5.9-5.9v-4.9
			C132.6,111.6,130,109,126.8,109z"/>
		<g>
			<linearGradient id="SVGID_4_" gradientUnits="userSpaceOnUse" x1="64.4518" y1="88.599" x2="166.5484" y2="88.599">
				<stop  offset="0" style="stop-color:#B4DCC0"/>
				<stop  offset="0.2171" style="stop-color:#BBD7BB"/>
				<stop  offset="0.5341" style="stop-color:#CFC8AF"/>
				<stop  offset="0.9107" style="stop-color:#EEB09A"/>
				<stop  offset="1" style="stop-color:#F7A994"/>
			</linearGradient>
			<path class="st3" d="M115.5,66.3h-51V105c0,3.2,2.6,5.9,5.9,5.9h7.7v-31h74.9v31h7.7c3.2,0,5.9-2.6,5.9-5.9V66.3H115.5z"/>
			<linearGradient id="SVGID_5_" gradientUnits="userSpaceOnUse" x1="64.6125" y1="144.4478" x2="166.5484" y2="144.4478">
				<stop  offset="0" style="stop-color:#B4DCC0"/>
				<stop  offset="0.2171" style="stop-color:#BBD7BB"/>
				<stop  offset="0.5341" style="stop-color:#CFC8AF"/>
				<stop  offset="0.9107" style="stop-color:#EEB09A"/>
				<stop  offset="1" style="stop-color:#F7A994"/>
			</linearGradient>
			<path class="st4" d="M160.7,120.5h-7.7v34.2h-37.4c-17.5,0-32.1-12.1-36.3-28.4c-1.5-5.9-14.6-5.9-14.6-5.9
				c1.7,26.7,23.8,47.9,50.9,47.9h51v-42C166.5,123.1,163.9,120.5,160.7,120.5z"/>
		</g>
	</g>
</g>
</svg>
